<svg xmlns="http://www.w3.org/2000/svg" version="1.0" preserveAspectRatio="xMidYMid meet" viewBox="239 108 172.84 188">
 <g fill="#2ec1e3">
  <path d="M 239.2 202.3 l 0.3 -93.8 54.5 -0.3 c 38.4 -0.2 55.8 0.1 59 0.9 21.3 5.4 36.1 18.4 42.4 37.1 2.1 6.3 2.6 9.5 2.6 18.1 0 10.8 -1.3 16.5 -5.9 25.5 -1.1 2.2 -2.1 4.5 -2.1 4.9 0 0.5 2.6 3.5 5.8 6.8 7.5 7.9 12.6 18.2 14.6 29.8 1.4 7.9 1.4 9.8 0 17.5 -4 23.1 -21.1 40.9 -43.9 45.7 -5.7 1.2 -18.1 1.5 -67.3 1.5 l -60.2 0 0.2 -93.7 z  m 126.1 81.3 c 8.4 -2.2 15.6 -6.4 21.7 -12.5 16.2 -16.6 17.5 -41.2 3.1 -59.1 -4.3 -5.4 -6.1 -7 -12.3 -11.1 l -4.7 -3.1 4.1 -5.2 c 2.3 -2.8 5.3 -7.6 6.7 -10.6 2.3 -5 2.5 -6.7 2.6 -18 0 -12.2 -0.1 -12.7 -3.4 -19.2 -6.6 -13.3 -19.6 -22.9 -33.7 -24.9 -3.8 -0.5 -27.5 -0.8 -52.9 -0.7 l -46 0.3 -0.3 81.5 c -0.1 44.8 0 82.1 0.3 82.8 0.7 1.9 107.3 1.7 114.8 -0.2 z "/>
 </g>
 <g fill="#44c6e0">
  <path d="M 239.2 202.3 l 0.3 -93.8 54.5 -0.3 c 38.4 -0.2 55.8 0.1 59 0.9 21.3 5.4 36.1 18.4 42.4 37.1 2.1 6.3 2.6 9.5 2.6 18.1 0 10.8 -1.3 16.5 -5.9 25.5 -1.1 2.2 -2.1 4.5 -2.1 4.9 0 0.5 2.6 3.5 5.8 6.8 7.6 7.9 12.6 18.2 14.6 30 2 11.2 2 10.8 -0.5 9.5 -1.6 -0.9 -2.4 -0.8 -3.7 0.8 -0.9 1 -2.7 2.1 -3.9 2.4 -2.2 0.6 -2.3 0.3 -2.3 -5 0 -10.2 -3.2 -18.9 -9.9 -27.2 -4.3 -5.4 -6.1 -7 -12.3 -11.1 l -4.7 -3.1 4.1 -5.2 c 2.3 -2.8 5.3 -7.6 6.7 -10.6 2.3 -5 2.5 -6.7 2.6 -18 0 -12.2 -0.1 -12.7 -3.4 -19.2 -6.6 -13.3 -19.6 -22.9 -33.7 -24.9 -3.8 -0.5 -27.5 -0.8 -52.9 -0.7 l -46 0.3 0 82.5 0 82.5 42.3 0.3 42.3 0.2 -2.5 2.5 c -1.4 1.4 -3.2 2.5 -4.1 2.5 -0.8 0 -1.5 0.5 -1.5 1 0 0.6 -0.9 1 -2 1 -1.3 0 -2 0.7 -2 2 0 2 -0.7 2 -42 2 l -42 0 0.2 -93.7 z "/>
  <path d="M 314.8 270.4 c -1.3 -1.2 -1 -60.2 0.3 -60.9 1.6 -1 17.6 -1.3 34 -0.5 13.4 0.6 15 0.9 19.8 3.5 18.7 10.2 22.7 33.5 8.2 48.4 -8.6 8.8 -11 9.4 -38.1 9.9 -12.9 0.2 -23.8 0 -24.2 -0.4 z  m 46.3 -11.9 c 7.9 -2.8 13.8 -10.8 13.9 -18.5 0 -4.8 -4.1 -13.3 -7.6 -15.7 -5.8 -3.9 -8.4 -4.4 -25.4 -4.1 l -16.5 0.3 -0.3 18.5 c -0.1 10.1 0 19 0.2 19.7 0.8 2 29.9 1.8 35.7 -0.2 z "/>
 </g>
 <g fill="#5ccbdc">
  <path d="M 239.2 202.3 l 0.3 -93.8 54.5 -0.3 c 38.4 -0.2 55.8 0.1 59 0.9 21.3 5.4 36.1 18.4 42.4 37.1 2.1 6.3 2.6 9.5 2.6 18.1 0 10.8 -1.3 16.5 -5.9 25.5 -1.1 2.2 -2.1 4.6 -2.1 5.1 0 0.5 2 2.9 4.5 5.2 2.5 2.4 5.9 6.5 7.5 9.1 2.6 4.1 2.7 4.8 1.2 4.8 -1 0 -2.4 0.9 -3.2 2 -0.8 1.1 -2 2 -2.7 2 -0.7 0 -1.3 0.5 -1.3 1.2 0 0.6 -1.3 -0.8 -2.9 -3.2 -4 -5.9 -9.6 -11.5 -15.2 -15.2 l -4.8 -3 4.1 -5.2 c 2.3 -2.8 5.3 -7.6 6.7 -10.6 2.3 -5 2.5 -6.7 2.6 -18 0 -12.2 -0.1 -12.7 -3.4 -19.2 -6.6 -13.3 -19.6 -22.9 -33.7 -24.9 -3.8 -0.5 -27.5 -0.8 -52.9 -0.7 l -46 0.3 0 82.5 0 82.5 18.3 0.3 18.2 0.2 -2.4 2.5 c -1.4 1.4 -3.5 2.5 -4.6 2.5 -2.5 0 -5 2.2 -5 4.4 0 1.4 -2.3 1.6 -18 1.6 l -18 0 0.2 -93.7 z "/>
  <path d="M 264.2 202.3 l 0.3 -68.8 39.9 -0.3 c 37.9 -0.2 40.1 -0.1 46.8 1.9 11.5 3.4 18.9 11.8 21.8 24.9 1.1 4.9 1 6.2 -1 12 -3.8 11.3 -10.7 18.4 -20.9 21.4 -4.3 1.3 -10.2 1.6 -27.8 1.6 -12.3 0 -22.3 0.3 -22.4 0.8 0 0.4 -0.2 17.1 -0.4 37.2 -0.3 20.1 -0.4 36.8 -0.5 37.3 0 0.4 -8.1 0.7 -18 0.7 l -18 0 0.2 -68.7 z  m 24.2 56.1 c 0.3 -0.9 0.6 -17.9 0.6 -37.9 l 0 -36.3 29.8 -0.4 c 27.6 -0.3 29.9 -0.4 33.1 -2.3 6 -3.5 9.2 -8.5 9.8 -15.2 0.8 -8.3 -1.9 -14.2 -8.1 -18.2 l -4.6 -2.9 -35.8 -0.4 c -19.6 -0.2 -36.3 -0.3 -36.9 0 -1 0.3 -1.3 12.7 -1.3 57.1 0 31.2 0.3 57.1 0.7 57.4 0.3 0.4 3.2 0.7 6.4 0.7 4.3 0 5.8 -0.4 6.3 -1.6 z "/>
  <path d="M 314.6 266.4 c -1.1 -2.9 -0.7 -56.2 0.5 -56.9 1.6 -1 17.6 -1.3 33.9 -0.5 16.1 0.8 19.5 1.9 27.1 8.7 4.1 3.7 7.7 9.3 6 9.3 -0.5 0 -1.6 0.6 -2.3 1.3 -0.8 0.6 -2.3 1.7 -3.3 2.4 -1.1 0.6 -1.9 1.7 -1.8 2.5 0.2 0.7 -0.3 0.5 -1 -0.6 -0.6 -1 -2.1 -3.2 -3.2 -4.9 -1.1 -1.7 -4 -4.1 -6.5 -5.4 -4.2 -2.1 -5.5 -2.3 -21.5 -2 l -17 0.2 -0.3 18.9 c -0.2 13.2 0.1 19.3 0.9 20.2 0.7 0.8 1 1.5 0.8 1.7 -3.6 2 -5.1 2.7 -6.2 2.7 -0.7 0 -1.9 0.9 -2.7 2 -1.7 2.4 -2.6 2.5 -3.4 0.4 z "/>
 </g>
 <g fill="#74d1d9">
  <path d="M 239.2 196.3 l 0.3 -87.8 54.5 -0.3 c 38.4 -0.2 55.8 0.1 59 0.9 21.3 5.4 36.1 18.4 42.4 37.1 3.3 9.9 3.7 25.4 0.7 33.9 -3 8.8 -5.2 12.8 -6.7 12.2 -0.8 -0.3 -2.7 0.9 -4.3 2.6 -1.8 1.9 -3.9 3.1 -5.5 3.1 -1.4 0 -2.6 0.5 -2.6 1 0 0.7 -0.6 0.7 -2 0 -1.9 -1 -1.8 -1.3 2.2 -6.3 2.2 -2.9 5.3 -7.7 6.7 -10.7 2.3 -5 2.5 -6.7 2.6 -18 0 -12.2 -0.1 -12.7 -3.4 -19.2 -6.6 -13.3 -19.6 -22.9 -33.7 -24.9 -3.8 -0.5 -27.5 -0.8 -52.9 -0.7 l -46 0.3 -0.3 80.3 c -0.2 70.4 -0.4 80.2 -1.7 80.2 -0.8 0 -1.5 0.5 -1.5 1 0 0.6 -0.9 1 -2 1 -1.1 0 -2 0.5 -2 1 0 0.6 -0.9 1 -2 1 -2 0 -2 -0.5 -1.8 -87.7 z "/>
  <path d="M 264.4 202.5 l 0.1 -69 39.9 -0.3 c 37.9 -0.2 40.1 -0.1 46.8 1.9 11.5 3.4 18.9 11.8 21.8 24.9 1.1 4.9 1 6.2 -1 12 -3.8 11.3 -10.7 18.4 -20.9 21.4 -4.3 1.3 -10.2 1.6 -27.8 1.6 -12.3 0 -22.3 0.3 -22.4 0.8 0 0.4 -0.2 11.5 -0.4 24.7 -0.1 13.2 -0.3 25.2 -0.4 26.8 -0.1 2.4 -0.5 2.7 -3.4 2.7 -2.1 0 -3.8 0.7 -4.7 2 -0.8 1.1 -1.8 2 -2.2 2 -0.4 0 -0.8 -15.7 -0.8 -34.9 l 0 -34.9 29.8 -0.4 c 27.6 -0.3 29.9 -0.4 33.1 -2.3 6 -3.5 9.2 -8.5 9.8 -15.2 0.8 -8.3 -1.9 -14.2 -8.1 -18.2 l -4.6 -2.9 -35.8 -0.4 c -19.6 -0.2 -36.3 -0.3 -36.9 0 -1 0.3 -1.3 12.7 -1.3 57.4 0 56.1 0 57 2 57.5 1.1 0.3 2 0.9 2 1.4 0 0.5 -0.9 0.9 -2 0.9 -1.1 0 -2 0.5 -2 1 0 0.6 -0.8 1 -1.8 1 -1 0 -2.4 0.9 -3.2 2 -0.8 1.1 -2.2 2 -3.1 2 -1 0 -2 0.8 -2.2 1.8 -0.3 0.9 -0.4 -29.3 -0.3 -67.3 z "/>
  <path d="M 314.6 234.9 c -0.3 -1.7 -0.6 -8.1 -0.6 -14.1 0 -9.2 0.3 -11 1.7 -11.5 3.5 -1.4 43.3 -0.7 43.3 0.7 0 0.6 -0.8 1.4 -1.7 1.7 -1 0.4 -2.5 1.5 -3.4 2.5 -0.9 1 -2.4 1.8 -3.4 1.8 -0.9 0 -1.9 0.9 -2.2 2 -0.5 1.8 -1.5 2 -11.7 2.2 l -11.1 0.3 -0.3 6.8 c -0.3 5.9 -0.5 6.7 -2.2 6.7 -1.1 0 -2 0.5 -2 1 0 0.6 -0.8 1 -1.8 1 -1 0 -2.3 0.5 -2.9 1.1 -0.7 0.7 -1.2 0.1 -1.7 -2.2 z "/>
 </g>
 <g fill="#8ed7d4">
  <path d="M 239.2 179.4 l 0.3 -70.9 54.5 -0.3 c 38.4 -0.2 55.8 0.1 59 0.9 16 4 26.9 11.2 35.4 23.3 3.9 5.5 8.6 15.8 8.6 18.9 0 0.7 -2.3 2.4 -5 3.8 l -5 2.7 -0.6 -3.7 c -1.2 -6.5 -6.4 -15.9 -12.1 -21.6 -6.8 -6.8 -15.7 -11.3 -24.9 -12.6 -3.8 -0.5 -27.5 -0.8 -52.9 -0.7 l -46 0.3 -0.3 62.3 c -0.2 54.4 -0.4 62.2 -1.7 62.2 -0.8 0 -1.5 0.4 -1.5 0.9 0 0.5 -1 1.3 -2.2 1.7 -1.3 0.3 -3.1 1.3 -4.1 2.2 -1.6 1.4 -1.7 -1.8 -1.5 -69.4 z "/>
  <path d="M 264.2 183.8 l 0.3 -50.3 39.9 -0.3 c 37.9 -0.2 40.1 -0.1 46.8 1.9 11.4 3.4 18.7 11.6 21.7 24.6 1.5 6.2 0.8 9.3 -2.2 9.3 -1.2 0 -4 1.4 -6.1 3 -2.2 1.7 -4.1 2.9 -4.3 2.7 -0.1 -0.2 0.2 -1.9 0.7 -3.8 2.7 -9.3 -0.2 -18.2 -7.5 -22.8 l -4.5 -2.9 -35.8 -0.4 c -19.6 -0.2 -36.3 -0.3 -36.9 0 -1 0.3 -1.3 9.7 -1.3 42.1 l -0.1 41.6 -5.4 2.8 -5.5 2.7 0.2 -50.2 z "/>
  <path d="M 289 201 l 0 -16.9 28.5 -0.3 c 15.7 -0.2 28.5 -0.2 28.5 -0.1 0 0.1 -3.4 2.1 -7.5 4.5 -4.1 2.3 -7.5 4.9 -7.5 5.6 0 0.9 -3.7 1.2 -14.9 1.2 -13.9 0 -15 0.1 -15.6 1.9 -0.3 1.1 -0.3 3.1 0.1 4.5 0.8 3.3 -0.4 11.6 -1.7 11.6 -0.6 0 -2.7 1.1 -4.7 2.5 -2 1.4 -4 2.5 -4.4 2.5 -0.5 0 -0.8 -7.6 -0.8 -17 z "/>
 </g>
 <g fill="#a6dcd1">
  <path d="M 239.2 161.3 l 0.3 -52.8 54.5 -0.3 c 38.4 -0.2 55.8 0.1 59 0.9 11.1 2.8 17.5 5.9 25.8 12.7 l 4.4 3.5 -3 1.4 c -1.6 0.8 -3.8 2.2 -4.8 3.2 -1.8 1.7 -2 1.6 -4.4 -0.6 -4.2 -4 -14.2 -8.4 -21.6 -9.4 -3.8 -0.5 -27.5 -0.8 -52.9 -0.7 l -46 0.3 -0.3 44.8 c -0.2 39.1 -0.4 44.7 -1.7 44.7 -0.9 0 -3.3 1.1 -5.5 2.5 l -4 2.5 0.2 -52.7 z "/>
  <path d="M 264.2 165.8 l 0.3 -32.3 39.9 -0.3 c 37.4 -0.2 40.2 -0.1 46.5 1.8 9.9 3 10.1 3.3 5 6.6 -2.4 1.6 -4.6 3.1 -4.9 3.4 -0.3 0.3 -16.9 0.2 -37 -0.1 -20.1 -0.3 -37.1 -0.4 -37.7 -0.1 -1 0.3 -1.3 6.1 -1.3 24.1 l -0.1 23.6 -5.4 2.8 -5.5 2.7 0.2 -32.2 z "/>
 </g>
 <g fill="#bde2cd">
  <path d="M 239.2 145.7 l 0.3 -37.2 55.2 -0.3 c 45.9 -0.2 55.8 0 58.5 1.2 l 3.3 1.4 -3.2 1.3 c -1.8 0.7 -3.3 1.6 -3.3 2 0 0.4 -1.3 1.2 -3 1.9 -1.7 0.7 -3 1.6 -3 2.1 0 0.5 -21 1 -46.7 1.1 l -46.8 0.3 -0.3 29.2 -0.2 29.1 -3 0.7 c -1.7 0.4 -3 1 -3 1.4 0 0.4 -1.1 1.3 -2.5 1.9 l -2.5 1.2 0.2 -37.3 z "/>
  <path d="M 264.2 150.3 l 0.3 -16.8 26.8 -0.3 c 14.7 -0.1 26.7 0.1 26.7 0.5 0 0.5 -2.4 2.1 -5.2 3.7 -2.9 1.7 -6.4 4.1 -7.7 5.4 -2.4 2.4 -2.6 2.4 -14.5 1.8 -6.7 -0.4 -12.9 -0.4 -13.9 -0.1 -1.4 0.6 -1.7 2 -1.7 8.9 l 0 8.2 -4.5 1.9 c -2.5 1.1 -4.5 2.3 -4.5 2.8 0 0.4 -0.5 0.7 -1 0.7 -0.7 0 -1 -5.8 -0.8 -16.7 z "/>
 </g>
 <g fill="#dae8c9">
  <path d="M 239.2 126.8 l 0.3 -18.3 30.5 -0.2 30.5 -0.3 -5.1 3 c -2.8 1.6 -6.3 4.1 -7.8 5.5 -2.6 2.4 -3.1 2.5 -19.9 2.7 l -17.2 0.3 -0.3 10.5 -0.3 10.5 -4.6 2 c -2.6 1.1 -5.1 2.2 -5.5 2.3 -0.5 0.2 -0.7 -7.9 -0.6 -18 z "/>
 </g>
</svg>